<svg xmlns="http://www.w3.org/2000/svg" width="1520" height="900" viewBox="0 0 1520 900">
<rect width="100%" height="100%" fill="#ffffff"/>
<style>text{font-family:Inter,Arial,sans-serif;fill:#111827}.muted{fill:#6b7280}.small{font-size:13px}.xs{font-size:11px}.title{font-size:26px;font-weight:700}.subtitle{font-size:14px}.axis{font-size:12px;fill:#374151}.tableHead{font-size:12px;font-weight:700;fill:#374151}.tableCell{font-size:12px;fill:#111827}</style>
<text x="86" y="42" class="title">Income Layer Activation and Drawdown Reference</text>
<text x="86" y="66" class="subtitle muted">Current default profiles. Curves show income-layer target allocation by account equity; log curves approach caps gradually.</text>
<rect x="86" y="92" width="880" height="570" rx="8" fill="#f9fafb" stroke="#d1d5db"/>
<line x1="86" y1="662.0" x2="966" y2="662.0" stroke="#e5e7eb"/>
<text x="74" y="666.0" text-anchor="end" class="axis">0%</text>
<line x1="86" y1="548.0" x2="966" y2="548.0" stroke="#e5e7eb"/>
<text x="74" y="552.0" text-anchor="end" class="axis">20%</text>
<line x1="86" y1="434.0" x2="966" y2="434.0" stroke="#e5e7eb"/>
<text x="74" y="438.0" text-anchor="end" class="axis">40%</text>
<line x1="86" y1="320.0" x2="966" y2="320.0" stroke="#e5e7eb"/>
<text x="74" y="324.0" text-anchor="end" class="axis">60%</text>
<line x1="86" y1="206.0" x2="966" y2="206.0" stroke="#e5e7eb"/>
<text x="74" y="210.0" text-anchor="end" class="axis">80%</text>
<line x1="86" y1="92.0" x2="966" y2="92.0" stroke="#e5e7eb"/>
<text x="74" y="96.0" text-anchor="end" class="axis">100%</text>
<line x1="86.0" y1="92" x2="86.0" y2="662" stroke="#edf2f7"/>
<text x="86.0" y="686" text-anchor="middle" class="axis">$0K</text>
<line x1="130.0" y1="92" x2="130.0" y2="662" stroke="#edf2f7"/>
<text x="130.0" y="686" text-anchor="middle" class="axis">$250K</text>
<line x1="174.0" y1="92" x2="174.0" y2="662" stroke="#edf2f7"/>
<text x="174.0" y="686" text-anchor="middle" class="axis">$500K</text>
<line x1="262.0" y1="92" x2="262.0" y2="662" stroke="#edf2f7"/>
<text x="262.0" y="686" text-anchor="middle" class="axis">$1M</text>
<line x1="438.0" y1="92" x2="438.0" y2="662" stroke="#edf2f7"/>
<text x="438.0" y="686" text-anchor="middle" class="axis">$2M</text>
<line x1="614.0" y1="92" x2="614.0" y2="662" stroke="#edf2f7"/>
<text x="614.0" y="686" text-anchor="middle" class="axis">$3M</text>
<line x1="966.0" y1="92" x2="966.0" y2="662" stroke="#edf2f7"/>
<text x="966.0" y="686" text-anchor="middle" class="axis">$5M</text>
<text x="526.0" y="716" text-anchor="middle" class="axis">Account equity</text>
<text x="24" y="377.0" transform="rotate(-90 24 377.0)" text-anchor="middle" class="axis">Income-layer target allocation</text>
<polyline fill="none" stroke="#2563eb" stroke-width="3" stroke-linejoin="round" stroke-linecap="round" points="86.0,662.0 87.8,662.0 89.5,662.0 91.3,662.0 93.0,662.0 94.8,662.0 96.6,662.0 98.3,662.0 100.1,662.0 101.8,662.0 103.6,662.0 105.4,662.0 107.1,662.0 108.9,662.0 110.6,662.0 112.4,662.0 114.2,662.0 115.9,662.0 117.7,662.0 119.4,662.0 121.2,662.0 123.0,662.0 124.7,662.0 126.5,662.0 128.2,662.0 130.0,662.0 131.8,659.8 133.5,653.5 135.3,643.5 137.0,630.3 138.8,614.1 140.6,606.4 142.3,599.1 144.1,592.3 145.8,585.9 147.6,579.9 149.4,574.2 151.1,568.8 152.9,563.7 154.6,558.9 156.4,554.3 158.2,549.9 159.9,545.8 161.7,541.8 163.4,538.0 165.2,534.4 167.0,531.0 168.7,527.7 170.5,524.5 172.2,521.4 174.0,518.5 175.8,515.7 177.5,513.0 179.3,510.4 181.0,507.9 182.8,505.5 184.6,503.2 186.3,501.0 188.1,498.8 189.8,496.7 191.6,494.7 193.4,492.8 195.1,490.9 196.9,489.1 198.6,487.3 200.4,485.6 202.2,483.9 203.9,482.3 205.7,480.7 207.4,479.2 209.2,477.8 211.0,476.3 212.7,474.9 214.5,473.6 216.2,472.3 218.0,471.0 219.8,469.7 221.5,468.5 223.3,467.3 225.0,466.2 226.8,465.0 228.6,463.9 230.3,462.9 232.1,461.8 233.8,460.8 235.6,459.8 237.4,458.8 239.1,457.9 240.9,457.0 242.6,456.1 244.4,455.2 246.2,454.3 247.9,453.5 249.7,452.6 251.4,451.8 253.2,451.0 255.0,450.2 256.7,449.5 258.5,448.7 260.2,448.0 262.0,447.3 263.8,446.6 265.5,445.9 267.3,445.2 269.0,444.6 270.8,443.9 272.6,443.3 274.3,442.6 276.1,442.0 277.8,441.4 279.6,440.8 281.4,440.3 283.1,439.7 284.9,439.1 286.6,438.6 288.4,438.0 290.2,437.5 291.9,437.0 293.7,436.5 295.4,436.0 297.2,435.5 299.0,435.0 300.7,434.5 302.5,434.0 304.2,433.6 306.0,433.1 307.8,432.7 309.5,432.2 311.3,431.8 313.0,431.3 314.8,430.9 316.6,430.5 318.3,430.1 320.1,429.7 321.8,429.3 323.6,428.9 325.4,428.5 327.1,428.1 328.9,427.8 330.6,427.4 332.4,427.0 334.2,426.7 335.9,426.3 337.7,426.0 339.4,425.6 341.2,425.3 343.0,425.0 344.7,424.6 346.5,424.3 348.2,424.0 350.0,423.7 351.8,423.4 353.5,423.0 355.3,422.7 357.0,422.4 358.8,422.1 360.6,421.9 362.3,421.6 364.1,421.3 365.8,421.0 367.6,420.7 369.4,420.4 371.1,420.2 372.9,419.9 374.6,419.6 376.4,419.4 378.2,419.1 379.9,418.9 381.7,418.6 383.4,418.4 385.2,418.1 387.0,417.9 388.7,417.6 390.5,417.4 392.2,417.2 394.0,416.9 395.8,416.7 397.5,416.5 399.3,416.3 401.0,416.0 402.8,415.8 404.6,415.6 406.3,415.4 408.1,415.2 409.8,415.0 411.6,414.8 413.4,414.6 415.1,414.4 416.9,414.2 418.6,414.0 420.4,413.8 422.2,413.6 423.9,413.4 425.7,413.2 427.4,413.0 429.2,412.8 431.0,412.6 432.7,412.4 434.5,412.3 436.2,412.1 438.0,411.9 439.8,411.7 441.5,411.6 443.3,411.4 445.0,411.2 446.8,411.0 448.6,410.9 450.3,410.7 452.1,410.5 453.8,410.4 455.6,410.2 457.4,410.1 459.1,409.9 460.9,409.7 462.6,409.6 464.4,409.4 466.2,409.3 467.9,409.1 469.7,409.0 471.4,408.8 473.2,408.7 475.0,408.6 476.7,408.4 478.5,408.3 480.2,408.1 482.0,408.0 483.8,407.8 485.5,407.7 487.3,407.6 489.0,407.4 490.8,407.3 492.6,407.2 494.3,407.0 496.1,406.9 497.8,406.8 499.6,406.7 501.4,406.5 503.1,406.4 504.9,406.3 506.6,406.2 508.4,406.0 510.2,405.9 511.9,405.8 513.7,405.7 515.4,405.6 517.2,405.4 519.0,405.3 520.7,405.2 522.5,405.1 524.2,405.0 526.0,404.9 527.8,404.7 529.5,404.6 531.3,404.5 533.0,404.4 534.8,404.3 536.6,404.2 538.3,404.1 540.1,404.0 541.8,403.9 543.6,403.8 545.4,403.7 547.1,403.6 548.9,403.5 550.6,403.4 552.4,403.3 554.2,403.2 555.9,403.1 557.7,403.0 559.4,402.9 561.2,402.8 563.0,402.7 564.7,402.6 566.5,402.5 568.2,402.4 570.0,402.3 571.8,402.2 573.5,402.1 575.3,402.0 577.0,401.9 578.8,401.8 580.6,401.8 582.3,401.7 584.1,401.6 585.8,401.5 587.6,401.4 589.4,401.3 591.1,401.2 592.9,401.1 594.6,401.1 596.4,401.0 598.2,400.9 599.9,400.8 601.7,400.7 603.4,400.7 605.2,400.6 607.0,400.5 608.7,400.4 610.5,400.3 612.2,400.3 614.0,400.2 615.8,400.1 617.5,400.0 619.3,399.9 621.0,399.9 622.8,399.8 624.6,399.7 626.3,399.6 628.1,399.6 629.8,399.5 631.6,399.4 633.4,399.3 635.1,399.3 636.9,399.2 638.6,399.1 640.4,399.1 642.2,399.0 643.9,398.9 645.7,398.8 647.4,398.8 649.2,398.7 651.0,398.6 652.7,398.6 654.5,398.5 656.2,398.4 658.0,398.4 659.8,398.3 661.5,398.2 663.3,398.2 665.0,398.1 666.8,398.0 668.6,398.0 670.3,397.9 672.1,397.9 673.8,397.8 675.6,397.7 677.4,397.7 679.1,397.6 680.9,397.5 682.6,397.5 684.4,397.4 686.2,397.4 687.9,397.3 689.7,397.2 691.4,397.2 693.2,397.1 695.0,397.1 696.7,397.0 698.5,396.9 700.2,396.9 702.0,396.8 703.8,396.8 705.5,396.7 707.3,396.7 709.0,396.6 710.8,396.6 712.6,396.5 714.3,396.4 716.1,396.4 717.8,396.3 719.6,396.3 721.4,396.2 723.1,396.2 724.9,396.1 726.6,396.1 728.4,396.0 730.2,396.0 731.9,395.9 733.7,395.9 735.4,395.8 737.2,395.8 739.0,395.7 740.7,395.6 742.5,395.6 744.2,395.5 746.0,395.5 747.8,395.4 749.5,395.4 751.3,395.3 753.0,395.3 754.8,395.3 756.6,395.2 758.3,395.2 760.1,395.1 761.8,395.1 763.6,395.0 765.4,395.0 767.1,394.9 768.9,394.9 770.6,394.8 772.4,394.8 774.2,394.7 775.9,394.7 777.7,394.6 779.4,394.6 781.2,394.6 783.0,394.5 784.7,394.5 786.5,394.4 788.2,394.4 790.0,394.3 791.8,394.3 793.5,394.2 795.3,394.2 797.0,394.2 798.8,394.1 800.6,394.1 802.3,394.0 804.1,394.0 805.8,393.9 807.6,393.9 809.4,393.9 811.1,393.8 812.9,393.8 814.6,393.7 816.4,393.7 818.2,393.7 819.9,393.6 821.7,393.6 823.4,393.5 825.2,393.5 827.0,393.5 828.7,393.4 830.5,393.4 832.2,393.3 834.0,393.3 835.8,393.3 837.5,393.2 839.3,393.2 841.0,393.1 842.8,393.1 844.6,393.1 846.3,393.0 848.1,393.0 849.8,393.0 851.6,392.9 853.4,392.9 855.1,392.8 856.9,392.8 858.6,392.8 860.4,392.7 862.2,392.7 863.9,392.7 865.7,392.6 867.4,392.6 869.2,392.6 871.0,392.5 872.7,392.5 874.5,392.5 876.2,392.4 878.0,392.4 879.8,392.4 881.5,392.3 883.3,392.3 885.0,392.3 886.8,392.2 888.6,392.2 890.3,392.1 892.1,392.1 893.8,392.1 895.6,392.0 897.4,392.0 899.1,392.0 900.9,392.0 902.6,391.9 904.4,391.9 906.2,391.9 907.9,391.8 909.7,391.8 911.4,391.8 913.2,391.7 915.0,391.7 916.7,391.7 918.5,391.6 920.2,391.6 922.0,391.6 923.8,391.5 925.5,391.5 927.3,391.5 929.0,391.4 930.8,391.4 932.6,391.4 934.3,391.4 936.1,391.3 937.8,391.3 939.6,391.3 941.4,391.2 943.1,391.2 944.9,391.2 946.6,391.1 948.4,391.1 950.2,391.1 951.9,391.1 953.7,391.0 955.4,391.0 957.2,391.0 959.0,390.9 960.7,390.9 962.5,390.9 964.2,390.9 966.0,390.8"/>
<circle cx="130.0" cy="662.0" r="4" fill="#2563eb" stroke="#fff" stroke-width="1.5"/>
<line x1="130.0" y1="92" x2="130.0" y2="662" stroke="#2563eb" stroke-opacity="0.12"/>
<circle cx="138.8" cy="614.1" r="3.5" fill="#ffffff" stroke="#2563eb" stroke-width="2"/>
<path d="M 935.7 386.2 L 945.7 396.2 M 945.7 386.2 L 935.7 396.2" stroke="#2563eb" stroke-width="2"/>
<polyline fill="none" stroke="#dc2626" stroke-width="3" stroke-linejoin="round" stroke-linecap="round" points="86.0,662.0 87.8,662.0 89.5,662.0 91.3,662.0 93.0,662.0 94.8,662.0 96.6,662.0 98.3,662.0 100.1,662.0 101.8,662.0 103.6,662.0 105.4,662.0 107.1,662.0 108.9,662.0 110.6,662.0 112.4,662.0 114.2,662.0 115.9,662.0 117.7,662.0 119.4,662.0 121.2,662.0 123.0,662.0 124.7,662.0 126.5,662.0 128.2,662.0 130.0,662.0 131.8,657.8 133.5,645.8 135.3,626.9 137.0,601.7 138.8,570.9 140.6,556.3 142.3,542.5 144.1,529.6 145.8,517.5 147.6,506.0 149.4,495.2 151.1,485.0 152.9,475.3 154.6,466.1 156.4,457.4 158.2,449.1 159.9,441.2 161.7,433.6 163.4,426.5 165.2,419.6 167.0,413.0 168.7,406.7 170.5,400.7 172.2,394.9 174.0,389.4 175.8,384.1 177.5,379.0 179.3,374.0 181.0,369.3 182.8,364.7 184.6,360.3 186.3,356.1 188.1,352.0 189.8,348.0 191.6,344.2 193.4,340.5 195.1,336.9 196.9,333.4 198.6,330.1 200.4,326.8 202.2,323.7 203.9,320.6 205.7,317.6 207.4,314.7 209.2,311.9 211.0,309.2 212.7,306.6 214.5,304.0 216.2,301.5 218.0,299.1 219.8,296.7 221.5,294.4 223.3,292.1 225.0,289.9 226.8,287.8 228.6,285.7 230.3,283.7 232.1,281.7 233.8,279.7 235.6,277.8 237.4,276.0 239.1,274.2 240.9,272.4 242.6,270.7 244.4,269.0 246.2,267.4 247.9,265.8 249.7,264.2 251.4,262.6 253.2,261.1 255.0,259.7 256.7,258.2 258.5,256.8 260.2,255.4 262.0,254.0 263.8,252.7 265.5,251.4 267.3,250.1 269.0,248.8 270.8,247.6 272.6,246.4 274.3,245.2 276.1,244.0 277.8,242.9 279.6,241.8 281.4,240.7 283.1,239.6 284.9,238.5 286.6,237.5 288.4,236.5 290.2,235.4 291.9,234.5 293.7,233.5 295.4,232.5 297.2,231.6 299.0,230.6 300.7,229.7 302.5,228.8 304.2,228.0 306.0,227.1 307.8,226.2 309.5,225.4 311.3,224.6 313.0,223.8 314.8,223.0 316.6,222.2 318.3,221.4 320.1,220.6 321.8,219.9 323.6,219.1 325.4,218.4 327.1,217.7 328.9,217.0 330.6,216.3 332.4,215.6 334.2,214.9 335.9,214.2 337.7,213.5 339.4,212.9 341.2,212.3 343.0,211.6 344.7,211.0 346.5,210.4 348.2,209.8 350.0,209.2 351.8,208.6 353.5,208.0 355.3,207.4 357.0,206.8 358.8,206.3 360.6,205.7 362.3,205.2 364.1,204.6 365.8,204.1 367.6,203.6 369.4,203.0 371.1,202.5 372.9,202.0 374.6,201.5 376.4,201.0 378.2,200.5 379.9,200.1 381.7,199.6 383.4,199.1 385.2,198.6 387.0,198.2 388.7,197.7 390.5,197.3 392.2,196.8 394.0,196.4 395.8,195.9 397.5,195.5 399.3,195.1 401.0,194.7 402.8,194.3 404.6,193.8 406.3,193.4 408.1,193.0 409.8,192.6 411.6,192.2 413.4,191.9 415.1,191.5 416.9,191.1 418.6,190.7 420.4,190.3 422.2,190.0 423.9,189.6 425.7,189.2 427.4,188.9 429.2,188.5 431.0,188.2 432.7,187.8 434.5,187.5 436.2,187.1 438.0,186.8 439.8,186.5 441.5,186.1 443.3,185.8 445.0,185.5 446.8,185.2 448.6,184.9 450.3,184.5 452.1,184.2 453.8,183.9 455.6,183.6 457.4,183.3 459.1,183.0 460.9,182.7 462.6,182.4 464.4,182.1 466.2,181.9 467.9,181.6 469.7,181.3 471.4,181.0 473.2,180.7 475.0,180.4 476.7,180.2 478.5,179.9 480.2,179.6 482.0,179.4 483.8,179.1 485.5,178.8 487.3,178.6 489.0,178.3 490.8,178.1 492.6,177.8 494.3,177.6 496.1,177.3 497.8,177.1 499.6,176.8 501.4,176.6 503.1,176.4 504.9,176.1 506.6,175.9 508.4,175.7 510.2,175.4 511.9,175.2 513.7,175.0 515.4,174.7 517.2,174.5 519.0,174.3 520.7,174.1 522.5,173.9 524.2,173.6 526.0,173.4 527.8,173.2 529.5,173.0 531.3,172.8 533.0,172.6 534.8,172.4 536.6,172.2 538.3,172.0 540.1,171.8 541.8,171.6 543.6,171.4 545.4,171.2 547.1,171.0 548.9,170.8 550.6,170.6 552.4,170.4 554.2,170.2 555.9,170.0 557.7,169.8 559.4,169.7 561.2,169.5 563.0,169.3 564.7,169.1 566.5,168.9 568.2,168.8 570.0,168.6 571.8,168.4 573.5,168.2 575.3,168.1 577.0,167.9 578.8,167.7 580.6,167.5 582.3,167.4 584.1,167.2 585.8,167.0 587.6,166.9 589.4,166.7 591.1,166.5 592.9,166.4 594.6,166.2 596.4,166.1 598.2,165.9 599.9,165.7 601.7,165.6 603.4,165.4 605.2,165.3 607.0,165.1 608.7,165.0 610.5,164.8 612.2,164.7 614.0,164.5 615.8,164.4 617.5,164.2 619.3,164.1 621.0,163.9 622.8,163.8 624.6,163.7 626.3,163.5 628.1,163.4 629.8,163.2 631.6,163.1 633.4,163.0 635.1,162.8 636.9,162.7 638.6,162.5 640.4,162.4 642.2,162.3 643.9,162.1 645.7,162.0 647.4,161.9 649.2,161.8 651.0,161.6 652.7,161.5 654.5,161.4 656.2,161.2 658.0,161.1 659.8,161.0 661.5,160.9 663.3,160.7 665.0,160.6 666.8,160.5 668.6,160.4 670.3,160.2 672.1,160.1 673.8,160.0 675.6,159.9 677.4,159.8 679.1,159.7 680.9,159.5 682.6,159.4 684.4,159.3 686.2,159.2 687.9,159.1 689.7,159.0 691.4,158.8 693.2,158.7 695.0,158.6 696.7,158.5 698.5,158.4 700.2,158.3 702.0,158.2 703.8,158.1 705.5,158.0 707.3,157.9 709.0,157.8 710.8,157.6 712.6,157.5 714.3,157.4 716.1,157.3 717.8,157.2 719.6,157.1 721.4,157.0 723.1,156.9 724.9,156.8 726.6,156.7 728.4,156.6 730.2,156.5 731.9,156.4 733.7,156.3 735.4,156.2 737.2,156.1 739.0,156.0 740.7,155.9 742.5,155.8 744.2,155.7 746.0,155.6 747.8,155.6 749.5,155.5 751.3,155.4 753.0,155.3 754.8,155.2 756.6,155.1 758.3,155.0 760.1,154.9 761.8,154.8 763.6,154.7 765.4,154.6 767.1,154.5 768.9,154.5 770.6,154.4 772.4,154.3 774.2,154.2 775.9,154.1 777.7,154.0 779.4,153.9 781.2,153.8 783.0,153.8 784.7,153.7 786.5,153.6 788.2,153.5 790.0,153.4 791.8,153.3 793.5,153.3 795.3,153.2 797.0,153.1 798.8,153.0 800.6,152.9 802.3,152.9 804.1,152.8 805.8,152.7 807.6,152.6 809.4,152.5 811.1,152.5 812.9,152.4 814.6,152.3 816.4,152.2 818.2,152.1 819.9,152.1 821.7,152.0 823.4,151.9 825.2,151.8 827.0,151.8 828.7,151.7 830.5,151.6 832.2,151.5 834.0,151.5 835.8,151.4 837.5,151.3 839.3,151.3 841.0,151.2 842.8,151.1 844.6,151.0 846.3,151.0 848.1,150.9 849.8,150.8 851.6,150.8 853.4,150.7 855.1,150.6 856.9,150.5 858.6,150.5 860.4,150.4 862.2,150.3 863.9,150.3 865.7,150.2 867.4,150.1 869.2,150.1 871.0,150.0 872.7,149.9 874.5,149.9 876.2,149.8 878.0,149.7 879.8,149.7 881.5,149.6 883.3,149.5 885.0,149.5 886.8,149.4 888.6,149.3 890.3,149.3 892.1,149.2 893.8,149.2 895.6,149.1 897.4,149.0 899.1,149.0 900.9,148.9 902.6,148.8 904.4,148.8 906.2,148.7 907.9,148.7 909.7,148.6 911.4,148.5 913.2,148.5 915.0,148.4 916.7,148.4 918.5,148.3 920.2,148.2 922.0,148.2 923.8,148.1 925.5,148.1 927.3,148.0 929.0,147.9 930.8,147.9 932.6,147.8 934.3,147.8 936.1,147.7 937.8,147.7 939.6,147.6 941.4,147.5 943.1,147.5 944.9,147.4 946.6,147.4 948.4,147.3 950.2,147.3 951.9,147.2 953.7,147.2 955.4,147.1 957.2,147.1 959.0,147.0 960.7,146.9 962.5,146.9 964.2,146.8 966.0,146.8"/>
<circle cx="130.0" cy="662.0" r="4" fill="#dc2626" stroke="#fff" stroke-width="1.5"/>
<line x1="130.0" y1="92" x2="130.0" y2="662" stroke="#dc2626" stroke-opacity="0.12"/>
<circle cx="138.8" cy="570.9" r="3.5" fill="#ffffff" stroke="#dc2626" stroke-width="2"/>
<path d="M 935.7 142.6 L 945.7 152.6 M 945.7 142.6 L 935.7 152.6" stroke="#dc2626" stroke-width="2"/>
<polyline fill="none" stroke="#16a34a" stroke-width="3" stroke-linejoin="round" stroke-linecap="round" points="86.0,662.0 87.8,662.0 89.5,662.0 91.3,662.0 93.0,662.0 94.8,662.0 96.6,662.0 98.3,662.0 100.1,662.0 101.8,662.0 103.6,662.0 105.4,662.0 107.1,662.0 108.9,662.0 110.6,662.0 112.4,662.0 114.2,662.0 115.9,662.0 117.7,662.0 119.4,662.0 121.2,662.0 123.0,662.0 124.7,662.0 126.5,662.0 128.2,662.0 130.0,662.0 131.8,662.0 133.5,662.0 135.3,662.0 137.0,662.0 138.8,662.0 140.6,662.0 142.3,662.0 144.1,662.0 145.8,662.0 147.6,662.0 149.4,662.0 151.1,662.0 152.9,662.0 154.6,662.0 156.4,662.0 158.2,662.0 159.9,662.0 161.7,662.0 163.4,662.0 165.2,662.0 167.0,662.0 168.7,662.0 170.5,662.0 172.2,662.0 174.0,662.0 175.8,661.7 177.5,661.0 179.3,659.7 181.0,657.9 182.8,655.8 184.6,654.6 186.3,653.6 188.1,652.5 189.8,651.5 191.6,650.5 193.4,649.5 195.1,648.6 196.9,647.7 198.6,646.8 200.4,645.9 202.2,645.1 203.9,644.3 205.7,643.5 207.4,642.7 209.2,642.0 211.0,641.2 212.7,640.5 214.5,639.8 216.2,639.1 218.0,638.5 219.8,637.8 221.5,637.2 223.3,636.6 225.0,636.0 226.8,635.4 228.6,634.8 230.3,634.2 232.1,633.7 233.8,633.1 235.6,632.6 237.4,632.1 239.1,631.6 240.9,631.1 242.6,630.6 244.4,630.1 246.2,629.7 247.9,629.2 249.7,628.8 251.4,628.3 253.2,627.9 255.0,627.5 256.7,627.0 258.5,626.6 260.2,626.2 262.0,625.8 263.8,625.4 265.5,625.1 267.3,624.7 269.0,624.3 270.8,624.0 272.6,623.6 274.3,623.3 276.1,622.9 277.8,622.6 279.6,622.2 281.4,621.9 283.1,621.6 284.9,621.3 286.6,621.0 288.4,620.7 290.2,620.3 291.9,620.1 293.7,619.8 295.4,619.5 297.2,619.2 299.0,618.9 300.7,618.6 302.5,618.4 304.2,618.1 306.0,617.8 307.8,617.6 309.5,617.3 311.3,617.1 313.0,616.8 314.8,616.6 316.6,616.3 318.3,616.1 320.1,615.8 321.8,615.6 323.6,615.4 325.4,615.1 327.1,614.9 328.9,614.7 330.6,614.5 332.4,614.3 334.2,614.1 335.9,613.8 337.7,613.6 339.4,613.4 341.2,613.2 343.0,613.0 344.7,612.8 346.5,612.6 348.2,612.4 350.0,612.3 351.8,612.1 353.5,611.9 355.3,611.7 357.0,611.5 358.8,611.3 360.6,611.2 362.3,611.0 364.1,610.8 365.8,610.6 367.6,610.5 369.4,610.3 371.1,610.1 372.9,610.0 374.6,609.8 376.4,609.7 378.2,609.5 379.9,609.3 381.7,609.2 383.4,609.0 385.2,608.9 387.0,608.7 388.7,608.6 390.5,608.4 392.2,608.3 394.0,608.1 395.8,608.0 397.5,607.9 399.3,607.7 401.0,607.6 402.8,607.4 404.6,607.3 406.3,607.2 408.1,607.0 409.8,606.9 411.6,606.8 413.4,606.6 415.1,606.5 416.9,606.4 418.6,606.3 420.4,606.1 422.2,606.0 423.9,605.9 425.7,605.8 427.4,605.7 429.2,605.5 431.0,605.4 432.7,605.3 434.5,605.2 436.2,605.1 438.0,605.0 439.8,604.8 441.5,604.7 443.3,604.6 445.0,604.5 446.8,604.4 448.6,604.3 450.3,604.2 452.1,604.1 453.8,604.0 455.6,603.9 457.4,603.8 459.1,603.7 460.9,603.6 462.6,603.5 464.4,603.4 466.2,603.3 467.9,603.2 469.7,603.1 471.4,603.0 473.2,602.9 475.0,602.8 476.7,602.7 478.5,602.6 480.2,602.5 482.0,602.4 483.8,602.3 485.5,602.2 487.3,602.2 489.0,602.1 490.8,602.0 492.6,601.9 494.3,601.8 496.1,601.7 497.8,601.6 499.6,601.5 501.4,601.5 503.1,601.4 504.9,601.3 506.6,601.2 508.4,601.1 510.2,601.0 511.9,601.0 513.7,600.9 515.4,600.8 517.2,600.7 519.0,600.6 520.7,600.6 522.5,600.5 524.2,600.4 526.0,600.3 527.8,600.3 529.5,600.2 531.3,600.1 533.0,600.0 534.8,600.0 536.6,599.9 538.3,599.8 540.1,599.8 541.8,599.7 543.6,599.6 545.4,599.5 547.1,599.5 548.9,599.4 550.6,599.3 552.4,599.3 554.2,599.2 555.9,599.1 557.7,599.1 559.4,599.0 561.2,598.9 563.0,598.9 564.7,598.8 566.5,598.7 568.2,598.7 570.0,598.7 571.8,598.7 573.5,598.7 575.3,598.7 577.0,598.7 578.8,598.7 580.6,598.7 582.3,598.7 584.1,598.7 585.8,598.7 587.6,598.7 589.4,598.7 591.1,598.7 592.9,598.7 594.6,598.7 596.4,598.7 598.2,598.7 599.9,598.7 601.7,598.7 603.4,598.7 605.2,598.7 607.0,598.7 608.7,598.7 610.5,598.7 612.2,598.7 614.0,598.7 615.8,598.7 617.5,598.7 619.3,598.7 621.0,598.7 622.8,598.7 624.6,598.7 626.3,598.7 628.1,598.7 629.8,598.7 631.6,598.7 633.4,598.7 635.1,598.7 636.9,598.7 638.6,598.7 640.4,598.7 642.2,598.7 643.9,598.7 645.7,598.7 647.4,598.7 649.2,598.7 651.0,598.7 652.7,598.7 654.5,598.7 656.2,598.7 658.0,598.7 659.8,598.7 661.5,598.7 663.3,598.7 665.0,598.7 666.8,598.7 668.6,598.7 670.3,598.7 672.1,598.7 673.8,598.7 675.6,598.7 677.4,598.7 679.1,598.7 680.9,598.7 682.6,598.7 684.4,598.7 686.2,598.7 687.9,598.7 689.7,598.7 691.4,598.7 693.2,598.7 695.0,598.7 696.7,598.7 698.5,598.7 700.2,598.7 702.0,598.7 703.8,598.7 705.5,598.7 707.3,598.7 709.0,598.7 710.8,598.7 712.6,598.7 714.3,598.7 716.1,598.7 717.8,598.7 719.6,598.7 721.4,598.7 723.1,598.7 724.9,598.7 726.6,598.7 728.4,598.7 730.2,598.7 731.9,598.7 733.7,598.7 735.4,598.7 737.2,598.7 739.0,598.7 740.7,598.7 742.5,598.7 744.2,598.7 746.0,598.7 747.8,598.7 749.5,598.7 751.3,598.7 753.0,598.7 754.8,598.7 756.6,598.7 758.3,598.7 760.1,598.7 761.8,598.7 763.6,598.7 765.4,598.7 767.1,598.7 768.9,598.7 770.6,598.7 772.4,598.7 774.2,598.7 775.9,598.7 777.7,598.7 779.4,598.7 781.2,598.7 783.0,598.7 784.7,598.7 786.5,598.7 788.2,598.7 790.0,598.7 791.8,598.7 793.5,598.7 795.3,598.7 797.0,598.7 798.8,598.7 800.6,598.7 802.3,598.7 804.1,598.7 805.8,598.7 807.6,598.7 809.4,598.7 811.1,598.7 812.9,598.7 814.6,598.7 816.4,598.7 818.2,598.7 819.9,598.7 821.7,598.7 823.4,598.7 825.2,598.7 827.0,598.7 828.7,598.7 830.5,598.7 832.2,598.7 834.0,598.7 835.8,598.7 837.5,598.7 839.3,598.7 841.0,598.7 842.8,598.7 844.6,598.7 846.3,598.7 848.1,598.7 849.8,598.7 851.6,598.7 853.4,598.7 855.1,598.7 856.9,598.7 858.6,598.7 860.4,598.7 862.2,598.7 863.9,598.7 865.7,598.7 867.4,598.7 869.2,598.7 871.0,598.7 872.7,598.7 874.5,598.7 876.2,598.7 878.0,598.7 879.8,598.7 881.5,598.7 883.3,598.7 885.0,598.7 886.8,598.7 888.6,598.7 890.3,598.7 892.1,598.7 893.8,598.7 895.6,598.7 897.4,598.7 899.1,598.7 900.9,598.7 902.6,598.7 904.4,598.7 906.2,598.7 907.9,598.7 909.7,598.7 911.4,598.7 913.2,598.7 915.0,598.7 916.7,598.7 918.5,598.7 920.2,598.7 922.0,598.7 923.8,598.7 925.5,598.7 927.3,598.7 929.0,598.7 930.8,598.7 932.6,598.7 934.3,598.7 936.1,598.7 937.8,598.7 939.6,598.7 941.4,598.7 943.1,598.7 944.9,598.7 946.6,598.7 948.4,598.7 950.2,598.7 951.9,598.7 953.7,598.7 955.4,598.7 957.2,598.7 959.0,598.7 960.7,598.7 962.5,598.7 964.2,598.7 966.0,598.7"/>
<circle cx="174.0" cy="662.0" r="4" fill="#16a34a" stroke="#fff" stroke-width="1.5"/>
<line x1="174.0" y1="92" x2="174.0" y2="662" stroke="#16a34a" stroke-opacity="0.12"/>
<circle cx="182.8" cy="655.8" r="3.5" fill="#ffffff" stroke="#16a34a" stroke-width="2"/>
<polyline fill="none" stroke="#9333ea" stroke-width="3" stroke-linejoin="round" stroke-linecap="round" points="86.0,662.0 87.8,662.0 89.5,662.0 91.3,662.0 93.0,662.0 94.8,662.0 96.6,662.0 98.3,662.0 100.1,662.0 101.8,662.0 103.6,662.0 105.4,662.0 107.1,662.0 108.9,662.0 110.6,662.0 112.4,662.0 114.2,662.0 115.9,662.0 117.7,662.0 119.4,662.0 121.2,662.0 123.0,662.0 124.7,662.0 126.5,662.0 128.2,662.0 130.0,662.0 131.8,662.0 133.5,662.0 135.3,662.0 137.0,662.0 138.8,662.0 140.6,662.0 142.3,662.0 144.1,662.0 145.8,662.0 147.6,662.0 149.4,662.0 151.1,662.0 152.9,662.0 154.6,662.0 156.4,662.0 158.2,661.4 159.9,659.8 161.7,657.2 163.4,653.7 165.2,651.8 167.0,650.0 168.7,648.3 170.5,646.6 172.2,645.0 174.0,643.5 175.8,642.0 177.5,640.6 179.3,639.2 181.0,637.8 182.8,636.5 184.6,635.3 186.3,634.1 188.1,632.9 189.8,631.7 191.6,630.6 193.4,629.6 195.1,628.5 196.9,627.5 198.6,626.5 200.4,625.6 202.2,624.6 203.9,623.7 205.7,622.8 207.4,622.0 209.2,621.1 211.0,620.3 212.7,619.5 214.5,618.7 216.2,618.0 218.0,617.2 219.8,616.5 221.5,615.8 223.3,615.1 225.0,614.4 226.8,613.8 228.6,613.1 230.3,612.5 232.1,611.9 233.8,611.3 235.6,610.7 237.4,610.1 239.1,609.5 240.9,609.0 242.6,608.4 244.4,607.9 246.2,607.4 247.9,606.9 249.7,606.4 251.4,605.9 253.2,605.4 255.0,604.9 256.7,604.4 258.5,604.0 260.2,603.5 262.0,603.1 263.8,602.7 265.5,602.2 267.3,601.8 269.0,601.4 270.8,601.0 272.6,600.6 274.3,600.2 276.1,599.8 277.8,599.5 279.6,599.1 281.4,598.7 283.1,598.4 284.9,598.0 286.6,597.7 288.4,597.3 290.2,597.0 291.9,596.6 293.7,596.3 295.4,596.0 297.2,595.7 299.0,595.4 300.7,595.1 302.5,594.8 304.2,594.5 306.0,594.2 307.8,593.9 309.5,593.6 311.3,593.3 313.0,593.0 314.8,592.7 316.6,592.5 318.3,592.2 320.1,591.9 321.8,591.7 323.6,591.4 325.4,591.2 327.1,590.9 328.9,590.7 330.6,590.4 332.4,590.2 334.2,590.0 335.9,589.7 337.7,589.5 339.4,589.3 341.2,589.0 343.0,588.8 344.7,588.6 346.5,588.4 348.2,588.2 350.0,587.9 351.8,587.7 353.5,587.5 355.3,587.3 357.0,587.1 358.8,586.9 360.6,586.7 362.3,586.5 364.1,586.3 365.8,586.1 367.6,585.9 369.4,585.8 371.1,585.6 372.9,585.4 374.6,585.2 376.4,585.0 378.2,584.9 379.9,584.7 381.7,584.5 383.4,584.3 385.2,584.2 387.0,584.0 388.7,583.8 390.5,583.7 392.2,583.5 394.0,583.3 395.8,583.2 397.5,583.0 399.3,582.9 401.0,582.8 402.8,582.8 404.6,582.8 406.3,582.8 408.1,582.8 409.8,582.8 411.6,582.8 413.4,582.8 415.1,582.8 416.9,582.8 418.6,582.8 420.4,582.8 422.2,582.8 423.9,582.8 425.7,582.8 427.4,582.8 429.2,582.8 431.0,582.8 432.7,582.8 434.5,582.8 436.2,582.8 438.0,582.8 439.8,582.8 441.5,582.8 443.3,582.8 445.0,582.8 446.8,582.8 448.6,582.8 450.3,582.8 452.1,582.8 453.8,582.8 455.6,582.8 457.4,582.8 459.1,582.8 460.9,582.8 462.6,582.8 464.4,582.8 466.2,582.8 467.9,582.8 469.7,582.8 471.4,582.8 473.2,582.8 475.0,582.8 476.7,582.8 478.5,582.8 480.2,582.8 482.0,582.8 483.8,582.8 485.5,582.8 487.3,582.8 489.0,582.8 490.8,582.8 492.6,582.8 494.3,582.8 496.1,582.8 497.8,582.8 499.6,582.8 501.4,582.8 503.1,582.8 504.9,582.8 506.6,582.8 508.4,582.8 510.2,582.8 511.9,582.8 513.7,582.8 515.4,582.8 517.2,582.8 519.0,582.8 520.7,582.8 522.5,582.8 524.2,582.8 526.0,582.8 527.8,582.8 529.5,582.8 531.3,582.8 533.0,582.8 534.8,582.8 536.6,582.8 538.3,582.8 540.1,582.8 541.8,582.8 543.6,582.8 545.4,582.8 547.1,582.8 548.9,582.8 550.6,582.8 552.4,582.8 554.2,582.8 555.9,582.8 557.7,582.8 559.4,582.8 561.2,582.8 563.0,582.8 564.7,582.8 566.5,582.8 568.2,582.8 570.0,582.8 571.8,582.8 573.5,582.8 575.3,582.8 577.0,582.8 578.8,582.8 580.6,582.8 582.3,582.8 584.1,582.8 585.8,582.8 587.6,582.8 589.4,582.8 591.1,582.8 592.9,582.8 594.6,582.8 596.4,582.8 598.2,582.8 599.9,582.8 601.7,582.8 603.4,582.8 605.2,582.8 607.0,582.8 608.7,582.8 610.5,582.8 612.2,582.8 614.0,582.8 615.8,582.8 617.5,582.8 619.3,582.8 621.0,582.8 622.8,582.8 624.6,582.8 626.3,582.8 628.1,582.8 629.8,582.8 631.6,582.8 633.4,582.8 635.1,582.8 636.9,582.8 638.6,582.8 640.4,582.8 642.2,582.8 643.9,582.8 645.7,582.8 647.4,582.8 649.2,582.8 651.0,582.8 652.7,582.8 654.5,582.8 656.2,582.8 658.0,582.8 659.8,582.8 661.5,582.8 663.3,582.8 665.0,582.8 666.8,582.8 668.6,582.8 670.3,582.8 672.1,582.8 673.8,582.8 675.6,582.8 677.4,582.8 679.1,582.8 680.9,582.8 682.6,582.8 684.4,582.8 686.2,582.8 687.9,582.8 689.7,582.8 691.4,582.8 693.2,582.8 695.0,582.8 696.7,582.8 698.5,582.8 700.2,582.8 702.0,582.8 703.8,582.8 705.5,582.8 707.3,582.8 709.0,582.8 710.8,582.8 712.6,582.8 714.3,582.8 716.1,582.8 717.8,582.8 719.6,582.8 721.4,582.8 723.1,582.8 724.9,582.8 726.6,582.8 728.4,582.8 730.2,582.8 731.9,582.8 733.7,582.8 735.4,582.8 737.2,582.8 739.0,582.8 740.7,582.8 742.5,582.8 744.2,582.8 746.0,582.8 747.8,582.8 749.5,582.8 751.3,582.8 753.0,582.8 754.8,582.8 756.6,582.8 758.3,582.8 760.1,582.8 761.8,582.8 763.6,582.8 765.4,582.8 767.1,582.8 768.9,582.8 770.6,582.8 772.4,582.8 774.2,582.8 775.9,582.8 777.7,582.8 779.4,582.8 781.2,582.8 783.0,582.8 784.7,582.8 786.5,582.8 788.2,582.8 790.0,582.8 791.8,582.8 793.5,582.8 795.3,582.8 797.0,582.8 798.8,582.8 800.6,582.8 802.3,582.8 804.1,582.8 805.8,582.8 807.6,582.8 809.4,582.8 811.1,582.8 812.9,582.8 814.6,582.8 816.4,582.8 818.2,582.8 819.9,582.8 821.7,582.8 823.4,582.8 825.2,582.8 827.0,582.8 828.7,582.8 830.5,582.8 832.2,582.8 834.0,582.8 835.8,582.8 837.5,582.8 839.3,582.8 841.0,582.8 842.8,582.8 844.6,582.8 846.3,582.8 848.1,582.8 849.8,582.8 851.6,582.8 853.4,582.8 855.1,582.8 856.9,582.8 858.6,582.8 860.4,582.8 862.2,582.8 863.9,582.8 865.7,582.8 867.4,582.8 869.2,582.8 871.0,582.8 872.7,582.8 874.5,582.8 876.2,582.8 878.0,582.8 879.8,582.8 881.5,582.8 883.3,582.8 885.0,582.8 886.8,582.8 888.6,582.8 890.3,582.8 892.1,582.8 893.8,582.8 895.6,582.8 897.4,582.8 899.1,582.8 900.9,582.8 902.6,582.8 904.4,582.8 906.2,582.8 907.9,582.8 909.7,582.8 911.4,582.8 913.2,582.8 915.0,582.8 916.7,582.8 918.5,582.8 920.2,582.8 922.0,582.8 923.8,582.8 925.5,582.8 927.3,582.8 929.0,582.8 930.8,582.8 932.6,582.8 934.3,582.8 936.1,582.8 937.8,582.8 939.6,582.8 941.4,582.8 943.1,582.8 944.9,582.8 946.6,582.8 948.4,582.8 950.2,582.8 951.9,582.8 953.7,582.8 955.4,582.8 957.2,582.8 959.0,582.8 960.7,582.8 962.5,582.8 964.2,582.8 966.0,582.8"/>
<circle cx="156.4" cy="662.0" r="4" fill="#9333ea" stroke="#fff" stroke-width="1.5"/>
<line x1="156.4" y1="92" x2="156.4" y2="662" stroke="#9333ea" stroke-opacity="0.12"/>
<circle cx="163.4" cy="653.7" r="3.5" fill="#ffffff" stroke="#9333ea" stroke-width="2"/>
<polyline fill="none" stroke="#f59e0b" stroke-width="3" stroke-linejoin="round" stroke-linecap="round" points="86.0,662.0 87.8,662.0 89.5,662.0 91.3,662.0 93.0,662.0 94.8,662.0 96.6,662.0 98.3,662.0 100.1,662.0 101.8,662.0 103.6,662.0 105.4,662.0 107.1,662.0 108.9,662.0 110.6,662.0 112.4,662.0 114.2,662.0 115.9,662.0 117.7,662.0 119.4,662.0 121.2,662.0 123.0,662.0 124.7,662.0 126.5,662.0 128.2,662.0 130.0,662.0 131.8,660.5 133.5,656.1 135.3,649.2 137.0,641.4 138.8,637.0 140.6,632.9 142.3,629.1 144.1,625.5 145.8,622.0 147.6,618.8 149.4,615.7 151.1,612.8 152.9,610.0 154.6,607.4 156.4,604.8 158.2,602.4 159.9,600.1 161.7,597.9 163.4,595.8 165.2,593.8 167.0,591.9 168.7,590.0 170.5,588.2 172.2,586.5 174.0,584.8 175.8,583.3 177.5,581.7 179.3,580.2 181.0,578.8 182.8,577.4 184.6,576.1 186.3,574.8 188.1,573.5 189.8,572.3 191.6,571.1 193.4,570.0 195.1,568.9 196.9,567.8 198.6,566.8 200.4,565.8 202.2,564.8 203.9,563.8 205.7,562.9 207.4,562.0 209.2,561.1 211.0,560.3 212.7,559.4 214.5,558.6 216.2,557.8 218.0,557.1 219.8,556.3 221.5,555.6 223.3,554.9 225.0,554.2 226.8,554.2 228.6,554.4 230.3,554.7 232.1,554.9 233.8,555.1 235.6,555.3 237.4,555.5 239.1,555.8 240.9,556.0 242.6,556.2 244.4,556.4 246.2,556.6 247.9,556.8 249.7,557.0 251.4,557.2 253.2,557.4 255.0,557.6 256.7,557.8 258.5,558.0 260.2,558.2 262.0,558.4 263.8,558.4 265.5,558.4 267.3,558.4 269.0,558.4 270.8,558.4 272.6,558.4 274.3,558.4 276.1,558.4 277.8,558.4 279.6,558.4 281.4,558.4 283.1,558.4 284.9,558.4 286.6,558.4 288.4,558.4 290.2,558.4 291.9,558.4 293.7,558.4 295.4,558.4 297.2,558.4 299.0,558.4 300.7,558.4 302.5,558.4 304.2,558.4 306.0,558.4 307.8,558.4 309.5,558.4 311.3,558.4 313.0,558.4 314.8,558.4 316.6,558.4 318.3,558.4 320.1,558.4 321.8,558.4 323.6,558.4 325.4,558.4 327.1,558.4 328.9,558.4 330.6,558.4 332.4,558.4 334.2,558.4 335.9,558.4 337.7,558.4 339.4,558.4 341.2,558.4 343.0,558.4 344.7,558.4 346.5,558.4 348.2,558.4 350.0,558.4 351.8,558.4 353.5,558.4 355.3,558.4 357.0,558.4 358.8,558.4 360.6,558.4 362.3,558.4 364.1,558.4 365.8,558.4 367.6,558.4 369.4,558.4 371.1,558.4 372.9,558.4 374.6,558.4 376.4,558.4 378.2,558.4 379.9,558.4 381.7,558.4 383.4,558.4 385.2,558.4 387.0,558.4 388.7,558.4 390.5,558.4 392.2,558.4 394.0,558.4 395.8,558.4 397.5,558.4 399.3,558.4 401.0,558.4 402.8,558.4 404.6,558.4 406.3,558.4 408.1,558.4 409.8,558.4 411.6,558.4 413.4,558.4 415.1,558.4 416.9,558.4 418.6,558.4 420.4,558.4 422.2,558.4 423.9,558.4 425.7,558.4 427.4,558.4 429.2,558.4 431.0,558.4 432.7,558.4 434.5,558.4 436.2,558.4 438.0,558.4 439.8,558.4 441.5,558.4 443.3,558.4 445.0,558.4 446.8,558.4 448.6,558.4 450.3,558.4 452.1,558.4 453.8,558.4 455.6,558.4 457.4,558.4 459.1,558.4 460.9,558.4 462.6,558.4 464.4,558.4 466.2,558.4 467.9,558.4 469.7,558.4 471.4,558.4 473.2,558.4 475.0,558.4 476.7,558.4 478.5,558.4 480.2,558.4 482.0,558.4 483.8,558.4 485.5,558.4 487.3,558.4 489.0,558.4 490.8,558.4 492.6,558.4 494.3,558.4 496.1,558.4 497.8,558.4 499.6,558.4 501.4,558.4 503.1,558.4 504.9,558.4 506.6,558.4 508.4,558.4 510.2,558.4 511.9,558.4 513.7,558.4 515.4,558.4 517.2,558.4 519.0,558.4 520.7,558.4 522.5,558.4 524.2,558.4 526.0,558.4 527.8,558.4 529.5,558.4 531.3,558.4 533.0,558.4 534.8,558.4 536.6,558.4 538.3,558.4 540.1,558.4 541.8,558.4 543.6,558.4 545.4,558.4 547.1,558.4 548.9,558.4 550.6,558.4 552.4,558.4 554.2,558.4 555.9,558.4 557.7,558.4 559.4,558.4 561.2,558.4 563.0,558.4 564.7,558.4 566.5,558.4 568.2,558.4 570.0,558.4 571.8,558.4 573.5,558.4 575.3,558.4 577.0,558.4 578.8,558.4 580.6,558.4 582.3,558.4 584.1,558.4 585.8,558.4 587.6,558.4 589.4,558.4 591.1,558.4 592.9,558.4 594.6,558.4 596.4,558.4 598.2,558.4 599.9,558.4 601.7,558.4 603.4,558.4 605.2,558.4 607.0,558.4 608.7,558.4 610.5,558.4 612.2,558.4 614.0,558.4 615.8,558.4 617.5,558.4 619.3,558.4 621.0,558.4 622.8,558.4 624.6,558.4 626.3,558.4 628.1,558.4 629.8,558.4 631.6,558.4 633.4,558.4 635.1,558.4 636.9,558.4 638.6,558.4 640.4,558.4 642.2,558.4 643.9,558.4 645.7,558.4 647.4,558.4 649.2,558.4 651.0,558.4 652.7,558.4 654.5,558.4 656.2,558.4 658.0,558.4 659.8,558.4 661.5,558.4 663.3,558.4 665.0,558.4 666.8,558.4 668.6,558.4 670.3,558.4 672.1,558.4 673.8,558.4 675.6,558.4 677.4,558.4 679.1,558.4 680.9,558.4 682.6,558.4 684.4,558.4 686.2,558.4 687.9,558.4 689.7,558.4 691.4,558.4 693.2,558.4 695.0,558.4 696.7,558.4 698.5,558.4 700.2,558.4 702.0,558.4 703.8,558.4 705.5,558.4 707.3,558.4 709.0,558.4 710.8,558.4 712.6,558.4 714.3,558.4 716.1,558.4 717.8,558.4 719.6,558.4 721.4,558.4 723.1,558.4 724.9,558.4 726.6,558.4 728.4,558.4 730.2,558.4 731.9,558.4 733.7,558.4 735.4,558.4 737.2,558.4 739.0,558.4 740.7,558.4 742.5,558.4 744.2,558.4 746.0,558.4 747.8,558.4 749.5,558.4 751.3,558.4 753.0,558.4 754.8,558.4 756.6,558.4 758.3,558.4 760.1,558.4 761.8,558.4 763.6,558.4 765.4,558.4 767.1,558.4 768.9,558.4 770.6,558.4 772.4,558.4 774.2,558.4 775.9,558.4 777.7,558.4 779.4,558.4 781.2,558.4 783.0,558.4 784.7,558.4 786.5,558.4 788.2,558.4 790.0,558.4 791.8,558.4 793.5,558.4 795.3,558.4 797.0,558.4 798.8,558.4 800.6,558.4 802.3,558.4 804.1,558.4 805.8,558.4 807.6,558.4 809.4,558.4 811.1,558.4 812.9,558.4 814.6,558.4 816.4,558.4 818.2,558.4 819.9,558.4 821.7,558.4 823.4,558.4 825.2,558.4 827.0,558.4 828.7,558.4 830.5,558.4 832.2,558.4 834.0,558.4 835.8,558.4 837.5,558.4 839.3,558.4 841.0,558.4 842.8,558.4 844.6,558.4 846.3,558.4 848.1,558.4 849.8,558.4 851.6,558.4 853.4,558.4 855.1,558.4 856.9,558.4 858.6,558.4 860.4,558.4 862.2,558.4 863.9,558.4 865.7,558.4 867.4,558.4 869.2,558.4 871.0,558.4 872.7,558.4 874.5,558.4 876.2,558.4 878.0,558.4 879.8,558.4 881.5,558.4 883.3,558.4 885.0,558.4 886.8,558.4 888.6,558.4 890.3,558.4 892.1,558.4 893.8,558.4 895.6,558.4 897.4,558.4 899.1,558.4 900.9,558.4 902.6,558.4 904.4,558.4 906.2,558.4 907.9,558.4 909.7,558.4 911.4,558.4 913.2,558.4 915.0,558.4 916.7,558.4 918.5,558.4 920.2,558.4 922.0,558.4 923.8,558.4 925.5,558.4 927.3,558.4 929.0,558.4 930.8,558.4 932.6,558.4 934.3,558.4 936.1,558.4 937.8,558.4 939.6,558.4 941.4,558.4 943.1,558.4 944.9,558.4 946.6,558.4 948.4,558.4 950.2,558.4 951.9,558.4 953.7,558.4 955.4,558.4 957.2,558.4 959.0,558.4 960.7,558.4 962.5,558.4 964.2,558.4 966.0,558.4"/>
<circle cx="130.0" cy="662.0" r="4" fill="#f59e0b" stroke="#fff" stroke-width="1.5"/>
<line x1="130.0" y1="92" x2="130.0" y2="662" stroke="#f59e0b" stroke-opacity="0.12"/>
<circle cx="136.6" cy="642.5" r="3.5" fill="#ffffff" stroke="#f59e0b" stroke-width="2"/>
<polyline fill="none" stroke="#0891b2" stroke-width="3" stroke-linejoin="round" stroke-linecap="round" points="86.0,662.0 87.8,662.0 89.5,662.0 91.3,662.0 93.0,662.0 94.8,662.0 96.6,662.0 98.3,662.0 100.1,662.0 101.8,662.0 103.6,662.0 105.4,662.0 107.1,662.0 108.9,662.0 110.6,662.0 112.4,662.0 114.2,662.0 115.9,662.0 117.7,662.0 119.4,662.0 121.2,662.0 123.0,662.0 124.7,662.0 126.5,662.0 128.2,662.0 130.0,662.0 131.8,662.0 133.5,662.0 135.3,662.0 137.0,662.0 138.8,662.0 140.6,661.2 142.3,658.8 144.1,655.1 145.8,650.0 147.6,645.6 149.4,642.8 151.1,640.2 152.9,637.6 154.6,635.2 156.4,632.9 158.2,630.7 159.9,628.6 161.7,626.6 163.4,624.7 165.2,622.8 167.0,621.0 168.7,619.3 170.5,617.6 172.2,616.0 174.0,614.5 175.8,613.0 177.5,611.6 179.3,610.2 181.0,608.9 182.8,607.6 184.6,606.3 186.3,605.1 188.1,604.0 189.8,602.8 191.6,601.7 193.4,600.6 195.1,599.6 196.9,598.6 198.6,597.6 200.4,596.7 202.2,595.7 203.9,594.8 205.7,593.9 207.4,593.1 209.2,592.2 211.0,591.4 212.7,590.6 214.5,589.9 216.2,589.1 218.0,588.4 219.8,587.7 221.5,587.0 223.3,586.3 225.0,585.6 226.8,584.9 228.6,584.3 230.3,583.7 232.1,583.1 233.8,582.5 235.6,581.9 237.4,581.3 239.1,580.7 240.9,580.2 242.6,579.6 244.4,579.1 246.2,578.6 247.9,578.1 249.7,577.6 251.4,577.1 253.2,576.6 255.0,576.1 256.7,575.7 258.5,575.2 260.2,574.8 262.0,574.3 263.8,573.9 265.5,573.5 267.3,573.4 269.0,573.6 270.8,573.8 272.6,573.9 274.3,574.1 276.1,574.3 277.8,574.5 279.6,574.7 281.4,574.9 283.1,575.1 284.9,575.3 286.6,575.4 288.4,575.6 290.2,575.8 291.9,576.0 293.7,576.2 295.4,576.3 297.2,576.5 299.0,576.5 300.7,576.5 302.5,576.5 304.2,576.5 306.0,576.5 307.8,576.5 309.5,576.5 311.3,576.5 313.0,576.5 314.8,576.5 316.6,576.5 318.3,576.5 320.1,576.5 321.8,576.5 323.6,576.5 325.4,576.5 327.1,576.5 328.9,576.5 330.6,576.5 332.4,576.5 334.2,576.5 335.9,576.5 337.7,576.5 339.4,576.5 341.2,576.5 343.0,576.5 344.7,576.5 346.5,576.5 348.2,576.5 350.0,576.5 351.8,576.5 353.5,576.5 355.3,576.5 357.0,576.5 358.8,576.5 360.6,576.5 362.3,576.5 364.1,576.5 365.8,576.5 367.6,576.5 369.4,576.5 371.1,576.5 372.9,576.5 374.6,576.5 376.4,576.5 378.2,576.5 379.9,576.5 381.7,576.5 383.4,576.5 385.2,576.5 387.0,576.5 388.7,576.5 390.5,576.5 392.2,576.5 394.0,576.5 395.8,576.5 397.5,576.5 399.3,576.5 401.0,576.5 402.8,576.5 404.6,576.5 406.3,576.5 408.1,576.5 409.8,576.5 411.6,576.5 413.4,576.5 415.1,576.5 416.9,576.5 418.6,576.5 420.4,576.5 422.2,576.5 423.9,576.5 425.7,576.5 427.4,576.5 429.2,576.5 431.0,576.5 432.7,576.5 434.5,576.5 436.2,576.5 438.0,576.5 439.8,576.5 441.5,576.5 443.3,576.5 445.0,576.5 446.8,576.5 448.6,576.5 450.3,576.5 452.1,576.5 453.8,576.5 455.6,576.5 457.4,576.5 459.1,576.5 460.9,576.5 462.6,576.5 464.4,576.5 466.2,576.5 467.9,576.5 469.7,576.5 471.4,576.5 473.2,576.5 475.0,576.5 476.7,576.5 478.5,576.5 480.2,576.5 482.0,576.5 483.8,576.5 485.5,576.5 487.3,576.5 489.0,576.5 490.8,576.5 492.6,576.5 494.3,576.5 496.1,576.5 497.8,576.5 499.6,576.5 501.4,576.5 503.1,576.5 504.9,576.5 506.6,576.5 508.4,576.5 510.2,576.5 511.9,576.5 513.7,576.5 515.4,576.5 517.2,576.5 519.0,576.5 520.7,576.5 522.5,576.5 524.2,576.5 526.0,576.5 527.8,576.5 529.5,576.5 531.3,576.5 533.0,576.5 534.8,576.5 536.6,576.5 538.3,576.5 540.1,576.5 541.8,576.5 543.6,576.5 545.4,576.5 547.1,576.5 548.9,576.5 550.6,576.5 552.4,576.5 554.2,576.5 555.9,576.5 557.7,576.5 559.4,576.5 561.2,576.5 563.0,576.5 564.7,576.5 566.5,576.5 568.2,576.5 570.0,576.5 571.8,576.5 573.5,576.5 575.3,576.5 577.0,576.5 578.8,576.5 580.6,576.5 582.3,576.5 584.1,576.5 585.8,576.5 587.6,576.5 589.4,576.5 591.1,576.5 592.9,576.5 594.6,576.5 596.4,576.5 598.2,576.5 599.9,576.5 601.7,576.5 603.4,576.5 605.2,576.5 607.0,576.5 608.7,576.5 610.5,576.5 612.2,576.5 614.0,576.5 615.8,576.5 617.5,576.5 619.3,576.5 621.0,576.5 622.8,576.5 624.6,576.5 626.3,576.5 628.1,576.5 629.8,576.5 631.6,576.5 633.4,576.5 635.1,576.5 636.9,576.5 638.6,576.5 640.4,576.5 642.2,576.5 643.9,576.5 645.7,576.5 647.4,576.5 649.2,576.5 651.0,576.5 652.7,576.5 654.5,576.5 656.2,576.5 658.0,576.5 659.8,576.5 661.5,576.5 663.3,576.5 665.0,576.5 666.8,576.5 668.6,576.5 670.3,576.5 672.1,576.5 673.8,576.5 675.6,576.5 677.4,576.5 679.1,576.5 680.9,576.5 682.6,576.5 684.4,576.5 686.2,576.5 687.9,576.5 689.7,576.5 691.4,576.5 693.2,576.5 695.0,576.5 696.7,576.5 698.5,576.5 700.2,576.5 702.0,576.5 703.8,576.5 705.5,576.5 707.3,576.5 709.0,576.5 710.8,576.5 712.6,576.5 714.3,576.5 716.1,576.5 717.8,576.5 719.6,576.5 721.4,576.5 723.1,576.5 724.9,576.5 726.6,576.5 728.4,576.5 730.2,576.5 731.9,576.5 733.7,576.5 735.4,576.5 737.2,576.5 739.0,576.5 740.7,576.5 742.5,576.5 744.2,576.5 746.0,576.5 747.8,576.5 749.5,576.5 751.3,576.5 753.0,576.5 754.8,576.5 756.6,576.5 758.3,576.5 760.1,576.5 761.8,576.5 763.6,576.5 765.4,576.5 767.1,576.5 768.9,576.5 770.6,576.5 772.4,576.5 774.2,576.5 775.9,576.5 777.7,576.5 779.4,576.5 781.2,576.5 783.0,576.5 784.7,576.5 786.5,576.5 788.2,576.5 790.0,576.5 791.8,576.5 793.5,576.5 795.3,576.5 797.0,576.5 798.8,576.5 800.6,576.5 802.3,576.5 804.1,576.5 805.8,576.5 807.6,576.5 809.4,576.5 811.1,576.5 812.9,576.5 814.6,576.5 816.4,576.5 818.2,576.5 819.9,576.5 821.7,576.5 823.4,576.5 825.2,576.5 827.0,576.5 828.7,576.5 830.5,576.5 832.2,576.5 834.0,576.5 835.8,576.5 837.5,576.5 839.3,576.5 841.0,576.5 842.8,576.5 844.6,576.5 846.3,576.5 848.1,576.5 849.8,576.5 851.6,576.5 853.4,576.5 855.1,576.5 856.9,576.5 858.6,576.5 860.4,576.5 862.2,576.5 863.9,576.5 865.7,576.5 867.4,576.5 869.2,576.5 871.0,576.5 872.7,576.5 874.5,576.5 876.2,576.5 878.0,576.5 879.8,576.5 881.5,576.5 883.3,576.5 885.0,576.5 886.8,576.5 888.6,576.5 890.3,576.5 892.1,576.5 893.8,576.5 895.6,576.5 897.4,576.5 899.1,576.5 900.9,576.5 902.6,576.5 904.4,576.5 906.2,576.5 907.9,576.5 909.7,576.5 911.4,576.5 913.2,576.5 915.0,576.5 916.7,576.5 918.5,576.5 920.2,576.5 922.0,576.5 923.8,576.5 925.5,576.5 927.3,576.5 929.0,576.5 930.8,576.5 932.6,576.5 934.3,576.5 936.1,576.5 937.8,576.5 939.6,576.5 941.4,576.5 943.1,576.5 944.9,576.5 946.6,576.5 948.4,576.5 950.2,576.5 951.9,576.5 953.7,576.5 955.4,576.5 957.2,576.5 959.0,576.5 960.7,576.5 962.5,576.5 964.2,576.5 966.0,576.5"/>
<circle cx="138.8" cy="662.0" r="4" fill="#0891b2" stroke="#fff" stroke-width="1.5"/>
<line x1="138.8" y1="92" x2="138.8" y2="662" stroke="#0891b2" stroke-opacity="0.12"/>
<circle cx="146.7" cy="647.0" r="3.5" fill="#ffffff" stroke="#0891b2" stroke-width="2"/>
<text x="92" y="688" class="small" font-weight="700">Legend: dot=start, hollow dot=band end, x=95% of hard cap</text>
<line x1="92" y1="710" x2="124" y2="710" stroke="#2563eb" stroke-width="3"/>
<text x="134" y="714" class="small">TQQQ · cap 50% · log_cap</text>
<line x1="387" y1="710" x2="419" y2="710" stroke="#dc2626" stroke-width="3"/>
<text x="429" y="714" class="small">SOXL/SOXX · cap 95% · log_cap</text>
<line x1="682" y1="710" x2="714" y2="710" stroke="#16a34a" stroke-width="3"/>
<text x="724" y="714" class="small">Global ETF · cap 15% · log_loss_budget</text>
<line x1="92" y1="744" x2="124" y2="744" stroke="#9333ea" stroke-width="3"/>
<text x="134" y="748" class="small">Russell 1000 MF · cap 20% · log_loss_budget</text>
<line x1="387" y1="744" x2="419" y2="744" stroke="#f59e0b" stroke-width="3"/>
<text x="429" y="748" class="small">Tech Pullback · cap 30% · log_loss_budget</text>
<line x1="682" y1="744" x2="714" y2="744" stroke="#0891b2" stroke-width="3"/>
<text x="724" y="748" class="small">Mega Cap Top50 · cap 25% · log_loss_budget</text>
<rect x="984" y="74" width="478" height="604" rx="8" fill="#ffffff" stroke="#d1d5db"/>
<text x="1008" y="102" class="small" font-weight="700">Thresholds and drawdown reference</text>
<text x="1008" y="132" class="tableHead">Profile</text>
<text x="1134" y="132" class="tableHead">Start</text>
<text x="1198" y="132" class="tableHead">Band end</text>
<text x="1276" y="132" class="tableHead">Cap</text>
<text x="1326" y="132" class="tableHead">Near cap</text>
<text x="1400" y="132" class="tableHead">DD ref</text>
<line x1="1008" y1="142" x2="1438" y2="142" stroke="#e5e7eb"/>
<circle cx="1013" cy="164" r="4" fill="#2563eb"/>
<text x="1022" y="168" class="tableCell" font-weight="700">TQQQ </text>
<text x="1134" y="168" class="tableCell">$250K</text>
<text x="1198" y="168" class="tableCell">$300K</text>
<text x="1276" y="168" class="tableCell">50%</text>
<text x="1326" y="168" class="tableCell">$4.86M</text>
<text x="1326" y="185" class="xs muted">95% cap</text>
<text x="1400" y="168" class="tableCell">-14.87% @ $1M combo</text>
<text x="1022" y="188" class="xs muted">mode: log_cap</text>
<line x1="1008" y1="202" x2="1438" y2="202" stroke="#f3f4f6"/>
<circle cx="1013" cy="240" r="4" fill="#dc2626"/>
<text x="1022" y="244" class="tableCell" font-weight="700">SOXL/SOXX </text>
<text x="1134" y="244" class="tableCell">$250K</text>
<text x="1198" y="244" class="tableCell">$300K</text>
<text x="1276" y="244" class="tableCell">95%</text>
<text x="1326" y="244" class="tableCell">$4.86M</text>
<text x="1326" y="261" class="xs muted">95% cap</text>
<text x="1400" y="244" class="tableCell">-9.04% @ $1M combo</text>
<text x="1022" y="264" class="xs muted">mode: log_cap</text>
<line x1="1008" y1="278" x2="1438" y2="278" stroke="#f3f4f6"/>
<circle cx="1013" cy="316" r="4" fill="#16a34a"/>
<text x="1022" y="320" class="tableCell" font-weight="700">Global ETF </text>
<text x="1134" y="320" class="tableCell">$500K</text>
<text x="1198" y="320" class="tableCell">$550K</text>
<text x="1276" y="320" class="tableCell">15%</text>
<text x="1326" y="320" class="tableCell">max 11%</text>
<text x="1326" y="337" class="xs muted">by $5M</text>
<text x="1400" y="320" class="tableCell">18% stress budget</text>
<text x="1022" y="340" class="xs muted">mode: log_loss_budget</text>
<line x1="1008" y1="354" x2="1438" y2="354" stroke="#f3f4f6"/>
<circle cx="1013" cy="392" r="4" fill="#9333ea"/>
<text x="1022" y="396" class="tableCell" font-weight="700">Russell 1000 MF </text>
<text x="1134" y="396" class="tableCell">$400K</text>
<text x="1198" y="396" class="tableCell">$440K</text>
<text x="1276" y="396" class="tableCell">20%</text>
<text x="1326" y="396" class="tableCell">max 14%</text>
<text x="1326" y="413" class="xs muted">by $5M</text>
<text x="1400" y="396" class="tableCell">18% stress budget</text>
<text x="1022" y="416" class="xs muted">mode: log_loss_budget</text>
<line x1="1008" y1="430" x2="1438" y2="430" stroke="#f3f4f6"/>
<circle cx="1013" cy="468" r="4" fill="#f59e0b"/>
<text x="1022" y="472" class="tableCell" font-weight="700">Tech Pullback </text>
<text x="1134" y="472" class="tableCell">$250K</text>
<text x="1198" y="472" class="tableCell">$288K</text>
<text x="1276" y="472" class="tableCell">30%</text>
<text x="1326" y="472" class="tableCell">max 19%</text>
<text x="1326" y="489" class="xs muted">by $5M</text>
<text x="1400" y="472" class="tableCell">22% stress budget</text>
<text x="1022" y="492" class="xs muted">mode: log_loss_budget</text>
<line x1="1008" y1="506" x2="1438" y2="506" stroke="#f3f4f6"/>
<circle cx="1013" cy="544" r="4" fill="#0891b2"/>
<text x="1022" y="548" class="tableCell" font-weight="700">Mega Cap Top50 </text>
<text x="1134" y="548" class="tableCell">$300K</text>
<text x="1198" y="548" class="tableCell">$345K</text>
<text x="1276" y="548" class="tableCell">25%</text>
<text x="1326" y="548" class="tableCell">max 16%</text>
<text x="1326" y="565" class="xs muted">by $5M</text>
<text x="1400" y="548" class="tableCell">20% stress budget</text>
<text x="1022" y="568" class="xs muted">mode: log_loss_budget</text>
<line x1="1008" y1="582" x2="1438" y2="582" stroke="#f3f4f6"/>
<text x="86" y="846" class="xs muted">Note: TQQQ and SOXL drawdowns use the latest $1M combined income-layer candidate comparison. Other profiles show configured stress drawdown budget, not full historical combined backtest.</text>
<text x="86" y="866" class="xs muted">Generated from STRATEGY_DEFAULT_CONFIG and resolve_income_layer_ratio on 2026-05-26.</text>
</svg>